<svg width="33" height="30" viewBox="0 0 33 30" fill="none" xmlns="http://www.w3.org/2000/svg">
<g clip-path="url(#clip0_1313_442)">
<path fill-rule="evenodd" clip-rule="evenodd" d="M0.640137 0H33.0001V30H0.640137V0Z" fill="white"/>
<path fill-rule="evenodd" clip-rule="evenodd" d="M2.06451 27.6566H1.97201C1.97201 27.6138 1.94884 27.5493 1.94884 27.5277C1.94884 27.5064 1.94884 27.4636 1.87934 27.4636H1.74033V27.6566H1.67083V27.2058H1.87934C1.97201 27.2058 2.04134 27.2275 2.04134 27.3131C2.04134 27.3775 2.01818 27.3991 1.99518 27.4203C2.01834 27.4419 2.04134 27.4634 2.04134 27.5064V27.5921C2.04134 27.6138 2.04134 27.6138 2.06451 27.6138V27.6566ZM1.97201 27.3347C1.97201 27.2703 1.92567 27.2703 1.90251 27.2703H1.74033V27.3991H1.87934C1.92567 27.3991 1.97201 27.3775 1.97201 27.3347V27.3347ZM2.36569 27.4205C2.36569 27.163 2.13418 26.9481 1.833 26.9481C1.55516 26.9481 1.32349 27.163 1.32349 27.4205C1.32349 27.6995 1.55516 27.9145 1.833 27.9145C2.13401 27.9143 2.36569 27.6995 2.36569 27.4205ZM2.29619 27.4205C2.29619 27.6567 2.08785 27.8284 1.833 27.8284C1.57816 27.8284 1.39299 27.6566 1.39299 27.4205C1.39299 27.2058 1.57833 27.0125 1.833 27.0125C2.08768 27.0125 2.29619 27.2058 2.29619 27.4205ZM30.8282 18.7467C30.8282 19.3908 30.3882 19.6911 29.6006 19.6911H28.0956V19.0469H29.6006C29.7396 19.0469 29.8555 19.0256 29.902 18.9828C29.9481 18.9396 29.9945 18.8752 29.9945 18.7895C29.9945 18.7034 29.9483 18.6176 29.902 18.5748C29.8555 18.5317 29.763 18.5104 29.624 18.5104C28.9063 18.4888 28.0029 18.5317 28.0029 17.5872C28.0029 17.1576 28.3039 16.6852 29.1144 16.6852H30.666V17.3294H29.2301C29.0914 17.3294 28.9986 17.3294 28.9291 17.3722C28.8596 17.4367 28.8134 17.5011 28.8134 17.6085C28.8134 17.7159 28.8829 17.7803 28.9754 17.8234C29.0683 17.8447 29.1609 17.8662 29.2768 17.8662H29.6935C30.1335 17.8662 30.4115 17.952 30.5968 18.1025C30.7355 18.2527 30.8282 18.4461 30.8282 18.7467V18.7467ZM27.5627 18.1025C27.3774 17.952 27.0994 17.8662 26.6594 17.8662H26.2427C26.127 17.8662 26.0342 17.8446 25.9417 17.8234C25.8488 17.7803 25.7797 17.7159 25.7797 17.6085C25.7797 17.5011 25.8027 17.4367 25.8953 17.3722C25.9648 17.3294 26.0573 17.3294 26.1963 17.3294H27.6322V16.6852H26.0807C25.2468 16.6852 24.9688 17.1576 24.9688 17.5872C24.9688 18.5316 25.8722 18.4888 26.5902 18.5104C26.7289 18.5104 26.8217 18.5317 26.8679 18.5748C26.914 18.6176 26.9607 18.7034 26.9607 18.7895C26.9607 18.8752 26.9142 18.9396 26.8679 18.9828C26.7984 19.0256 26.7059 19.0469 26.5669 19.0469H25.0615V19.6911H26.5669C27.354 19.6911 27.7942 19.3907 27.7942 18.7467C27.7942 18.4461 27.7017 18.2527 27.5627 18.1025V18.1025ZM24.5983 19.0687H22.7691V18.4674H24.5521V17.8665H22.7691V17.3081H24.5983V16.6855H22.0047V19.6912H24.5983V19.0687ZM21.1708 16.8359C20.916 16.707 20.615 16.6854 20.2213 16.6854H18.4382V19.6911H19.2254V18.5962H20.0593C20.337 18.5962 20.4993 18.6178 20.6152 18.725C20.7542 18.8752 20.7542 19.1329 20.7542 19.3262V19.6911H21.5182V19.1113C21.5182 18.8323 21.4952 18.7034 21.4025 18.5532C21.333 18.4671 21.1943 18.3599 21.009 18.2955C21.2172 18.2313 21.5649 17.9736 21.5649 17.5011C21.5647 17.1578 21.4257 16.9645 21.1708 16.8359V16.8359ZM16.7707 16.6854H14.2926L13.2967 17.6731L12.3472 16.6854H9.22076V19.6911H12.301L13.2969 18.7034L14.2464 19.6911H15.7518V18.6822H16.7245C17.396 18.6822 18.0679 18.5104 18.0679 17.6731C18.0677 16.8572 17.3729 16.6854 16.7707 16.6854ZM20.5455 17.9308C20.4298 17.9736 20.314 17.9736 20.175 17.9736L19.2254 17.9952V17.3079H20.175C20.314 17.3079 20.453 17.3079 20.5455 17.3724C20.6383 17.4155 20.7075 17.5012 20.7075 17.6301C20.7075 17.759 20.6383 17.8664 20.5455 17.9308V17.9308ZM16.7707 18.081H15.7517V17.3079H16.7707C17.0487 17.3079 17.2339 17.4155 17.2339 17.6731C17.2339 17.9308 17.0485 18.081 16.7707 18.081ZM13.7831 18.1882L14.9873 17.0076V19.4336L13.7831 18.1882ZM11.9072 19.0687H9.98495V18.4674H11.6987V17.8665H9.98495V17.3081H11.9304L12.7872 18.1884L11.9072 19.0687V19.0687ZM28.6743 14.5169H27.5627L26.1037 12.2625V14.5169H24.5291L24.2278 13.8512H22.6067L22.3057 14.5169H21.4023C21.0318 14.5169 20.5455 14.431 20.2678 14.1733C20.013 13.9157 19.874 13.5722 19.874 13.0354C19.874 12.5845 19.9435 12.1766 20.2906 11.8546C20.5221 11.6183 20.9392 11.5111 21.4717 11.5111H22.2127V12.1553H21.4717C21.194 12.1553 21.0317 12.1982 20.8697 12.3271C20.7307 12.456 20.6612 12.6921 20.6612 13.0141C20.6612 13.3361 20.7307 13.5723 20.8697 13.7227C20.9853 13.8299 21.194 13.8729 21.4022 13.8729H21.7497L22.8612 11.5112H24.0193L25.3161 14.3452V11.5111H26.5205L27.8869 13.5937V11.5111H28.6741V14.5169H28.6743V14.5169ZM19.4803 11.5111H18.6931V14.5169H19.4803V11.5111V11.5111ZM17.8359 11.6399C17.581 11.5111 17.3034 11.5111 16.9097 11.5111H15.1263V14.5169H15.8905V13.4218H16.7242C17.0022 13.4218 17.1875 13.4433 17.3032 13.5507C17.4422 13.7011 17.4189 13.9588 17.4189 14.1305V14.5169H18.2061V13.9157C18.2061 13.6581 18.1831 13.5292 18.0674 13.3789C17.9979 13.293 17.8589 13.1856 17.6969 13.1213C17.9051 13.0354 18.2527 12.7993 18.2527 12.3269C18.2529 11.9834 18.0906 11.7901 17.8359 11.6399ZM14.5704 13.8944H12.764V13.2931H14.5473V12.6706H12.764V12.1338H14.5704V11.5112H11.9767V14.5171H14.5704V13.8944ZM11.3977 11.5111H10.124L9.17442 13.5507L8.15539 11.5111H6.90485V14.3451L5.5848 11.5111H4.42693L3.03738 14.5169H3.87107L4.17208 13.8512H5.79314L6.09415 14.5169H7.66904V12.1553L8.80374 14.5169H9.47527L10.6101 12.1553V14.5169H11.3975V11.5111H11.3977ZM23.9501 13.2072L23.4172 12.0264L22.8847 13.2072H23.9501ZM17.2339 12.735C17.1182 12.7994 17.0024 12.7994 16.8402 12.7994H15.8905V12.1339H16.84C16.979 12.1339 17.1409 12.1339 17.2337 12.1769C17.3262 12.2413 17.3727 12.3272 17.3727 12.456C17.3727 12.5847 17.3264 12.6919 17.2339 12.735V12.735ZM4.44993 13.2072L4.98261 12.0264L5.5153 13.2072H4.44993V13.2072ZM30.643 2.08569H3.01404V12.9067L3.96358 10.91H5.97831L6.25632 11.4038V10.91H8.61857L9.15126 11.9834L9.66077 10.91H17.1875C17.5347 10.91 17.8357 10.9744 18.0676 11.1461V10.91H20.1286V11.1461C20.4758 10.9743 20.9158 10.91 21.4255 10.91H24.4129L24.691 11.4038V10.91H26.891L27.2154 11.4038V10.91H29.369V15.1181H27.1922L26.7755 14.4741V15.1181H24.0658L23.7648 14.4311H23.0929L22.7919 15.1181H21.3793C20.8235 15.1181 20.4065 14.9893 20.1288 14.8605V15.1181H16.7707V14.1519C16.7707 14.0231 16.7475 14.0016 16.6548 14.0016H16.5392V15.118H10.0545V14.5812L9.82295 15.118H8.45657L8.22506 14.6027V15.118H5.60797L5.33013 14.431H4.65843L4.35743 15.118H3.01404V27.8069H30.643V20.099C30.342 20.2278 29.925 20.2923 29.5081 20.2923H27.4932V20.0345C27.2617 20.2065 26.8447 20.2923 26.4512 20.2923H20.1055V19.3262C20.1055 19.1974 20.0825 19.1974 19.9665 19.1974H19.8508V20.2923H17.7664V19.1544C17.4192 19.3046 17.0254 19.3046 16.678 19.3046H16.4463V20.2923H13.8989L13.2969 19.6481L12.6254 20.2923H8.5259V16.0843H12.6945L13.2967 16.7282L13.9453 16.0843H16.7475C17.0715 16.0843 17.6044 16.1271 17.8359 16.3417V16.0843H20.337C20.5918 16.0843 21.0783 16.1271 21.4023 16.3417V16.0843H25.1773V16.3419C25.3858 16.1701 25.7797 16.0845 26.1268 16.0845H28.2342V16.3419C28.4661 16.1917 28.7901 16.0845 29.2071 16.0845H30.643V2.08569V2.08569Z" fill="#0077A6"/>
</g>
<defs>
<clipPath id="clip0_1313_442">
<rect width="32.36" height="30" fill="white" transform="translate(0.640137)"/>
</clipPath>
</defs>
</svg>
